<?xml version="1.0" encoding="UTF-8"?>
<svg width="445px" height="352px" viewBox="0 0 445 352" version="1.1" xmlns="http://www.w3.org/2000/svg" xmlns:xlink="http://www.w3.org/1999/xlink">
    <!-- Generator: sketchtool 63.1 (101010) - https://sketch.com -->
    <title>2EBC7C6E-3003-4CD9-8D5E-F9050C7254E8</title>
    <desc>Created with sketchtool.</desc>
    <g id="Wireframe" stroke="none" stroke-width="1" fill="none" fill-rule="evenodd">
        <g id="1200" transform="translate(-631.000000, -237.000000)">
            <g id="header/1200" transform="translate(40.000000, 140.000000)">
                <g id="illu/header" transform="translate(573.000000, 0.000000)">
                    <g id="illu_header">
                        <g id="phmultiposting" transform="translate(18.041979, 97.667838)">
                            <polyline id="Path" stroke="#2264C3" stroke-width="1.07" points="83.2567138 0 339.901263 0 339.901263 115.291357"></polyline>
                            <g id="zoom" transform="translate(7.638231, 12.979822)">
                                <path d="M247.448818,332.426546 L122.993177,332.426546 L102.591812,241.19091 C101.348718,235.612545 104.85863,230.034179 110.415992,228.712987 C111.147224,228.566188 111.951579,228.492789 112.68281,228.492789 L212.057202,228.492789 C219.150151,228.492789 225.292497,233.410558 226.901206,240.383515 L247.448818,332.426546 Z" id="Path" fill="#223C4C" fill-rule="nonzero"></path>
                                <path d="M253.518042,332.426546 L128.989278,332.426546 L108.587913,241.19091 C107.344819,235.612545 110.854731,230.034179 116.412092,228.712987 C117.143323,228.566188 117.947678,228.492789 118.67891,228.492789 L218.053303,228.492789 C225.14625,228.492789 231.288597,233.410558 232.897307,240.383515 L253.518042,332.426546 Z" id="Path" fill="#385266" fill-rule="nonzero"></path>
                                <path d="M133.669161,326.554583 L114.291519,239.943118 C113.706535,237.520933 115.242121,235.098748 117.728309,234.511552 C118.020802,234.438152 118.386417,234.438152 118.67891,234.364752 L218.126426,234.364752 C222.513817,234.364752 226.316222,237.374134 227.266823,241.704707 L246.205725,326.481183 L133.669161,326.481183 L133.669161,326.554583 Z" id="Path" fill="#E3EAF1" fill-rule="nonzero"></path>
                                <path d="M211.179725,337.417716 L128.33117,337.417716 C125.552488,337.417716 123.358793,335.14233 123.358793,332.426546 C123.358793,329.637364 125.552488,327.435378 128.33117,327.435378 L211.179725,327.435378 C213.958405,327.435378 216.1521,329.637364 216.1521,332.426546 C216.225223,335.14233 213.958405,337.417716 211.179725,337.417716 C211.179725,337.417716 211.179725,337.417716 211.179725,337.417716" id="Path" fill="#3C5D6D" fill-rule="nonzero"></path>
                                <path d="M297.684439,337.417716 L214.835884,337.417716 C212.057202,337.417716 209.863507,335.14233 209.863507,332.426546 C209.863507,329.637364 212.057202,327.435378 214.835884,327.435378 L297.684439,327.435378 C300.463119,327.435378 302.656814,329.710763 302.656814,332.426546 C302.656814,335.14233 300.463119,337.417716 297.684439,337.417716" id="Path" fill="#223C4C" fill-rule="nonzero"></path>
                                <polyline id="Path" fill="#FFFFFF" fill-rule="nonzero" points="56.8898288 80.152305 56.8898288 218.730649 147.416317 218.730649 147.416317 247.283072 175.422493 218.730649 242.257073 218.730649"></polyline>
                                <polyline id="Path" stroke="#2264C3" stroke-width="1.07" points="56.8898288 80.152305 56.8898288 218.730649 147.416317 218.730649 147.416317 247.283072 175.422493 218.730649 242.257073 218.730649"></polyline>
                                <rect id="Rectangle" fill="#F0F4F7" fill-rule="nonzero" x="68.0776743" y="27.1578323" width="220.246998" height="184.379661"></rect>
                                <rect id="Rectangle" fill="#385266" fill-rule="nonzero" x="86.2122214" y="0.66059592" width="69.7595073" height="2.93598187"></rect>
                                <rect id="Rectangle" fill="#D6DFEC" fill-rule="nonzero" x="86.2122214" y="10.3493361" width="44.5320125" height="5.35816691"></rect>
                                <rect id="Rectangle" fill="#D6DFEC" fill-rule="nonzero" x="86.2122214" y="19.5976789" width="55.1348727" height="5.35816691"></rect>
                                <rect id="Rectangle" fill="#D6DFEC" fill-rule="nonzero" x="86.2122214" y="28.8460219" width="55.1348727" height="5.35816691"></rect>
                                <rect id="Rectangle" fill="#FFFFFF" fill-rule="nonzero" x="86.2122214" y="80.3725036" width="143.906405" height="87.4922596"></rect>
                                <rect id="Rectangle" fill="#D6DFEC" fill-rule="nonzero" x="92.5008143" y="118.760466" width="48.8462798" height="1.90838821"></rect>
                                <rect id="Rectangle" fill="#D6DFEC" fill-rule="nonzero" x="92.5008143" y="127.274814" width="48.8462798" height="1.90838821"></rect>
                                <path d="M241.233348,167.938163 L241.233348,167.938163 C239.770885,167.938163 238.600915,166.76377 238.600915,165.295779 C238.600915,165.295779 238.600915,165.295779 238.600915,165.295779 L238.600915,83.0882868 C238.600915,81.6202959 239.770885,80.4459031 241.233348,80.4459031 C242.695812,80.4459031 243.865783,81.6202959 243.865783,83.0882868 L243.865783,165.295779 C243.938906,166.76377 242.695812,167.938163 241.233348,167.938163 C241.233348,167.938163 241.233348,167.938163 241.233348,167.938163" id="Path" fill="#E3EAF1" fill-rule="nonzero"></path>
                                <path d="M241.233348,149.881874 L241.233348,149.881874 C239.770885,149.881874 238.600915,148.707482 238.600915,147.23949 L238.600915,133.146778 C238.600915,131.678787 239.770885,130.504394 241.233348,130.504394 C242.695812,130.504394 243.865783,131.678787 243.865783,133.146778 L243.865783,147.23949 C243.938906,148.634082 242.695812,149.881874 241.233348,149.881874" id="Path" fill="#D6DFEC" fill-rule="nonzero"></path>
                                <line x1="345.068255" y1="283.469049" x2="353.916159" y2="312.46187" id="Path" stroke="#093F7F" stroke-width="1.07"></line>
                                <path d="M333.661039,180.269287 C338.633416,181.076681 343.678914,181.884077 348.651291,181.150082 C353.623666,180.416086 358.596042,177.847101 361.009107,173.36973 C362.837186,169.99335 362.983433,165.956375 362.617816,162.066199 C362.252201,158.102623 361.447846,154.065648 359.47352,150.689269 C357.499194,147.31289 354.135528,144.450308 350.26,143.789711 C346.823211,143.275915 343.313299,144.523707 340.973357,147.166091 C338.706539,149.661676 339.87651,153.038054 339.803386,156.194235 C339.803386,164.635183 337.609691,172.855933 333.661039,180.269287" id="Path" fill="#385266" fill-rule="nonzero"></path>
                                <path d="M307.117328,87.4188601 C303.534292,94.2450179 302.949307,103.933758 306.312973,110.906715 C309.749762,118.026471 313.771537,124.77923 318.45142,131.16499 C320.645115,134.100972 323.423795,137.183753 327.006831,137.183753 C329.931758,137.183753 332.417946,135.128566 334.538518,133.146778 C345.65324,122.503843 354.062406,109.438724 359.25415,94.9056141 C362.252201,86.4646659 373.001307,83.2350859 363.787788,77.2897226 C338.633416,60.9950233 309.603515,82.7946887 307.117328,87.4188601" id="Path" fill="#385266" fill-rule="nonzero"></path>
                                <path d="M322.765687,208.014315 C322.765687,208.014315 250.008129,256.898414 242.330196,231.208572 C236.480342,211.684292 309.018531,136.449757 309.018531,136.449757 L313.332798,147.019292 L267.630814,211.684292 L308.360422,183.939264 L322.765687,208.014315 Z" id="Path" fill="#F4C2B8" fill-rule="nonzero"></path>
                                <path d="M320.937608,170.653946 L305.069879,166.76377 C301.85246,165.956375 299.805011,162.653396 300.609365,159.423816 L308.726038,125.880223 C309.530393,122.650643 312.820936,120.595455 316.038355,121.40285 L331.979207,125.293026 C335.196626,126.100421 337.244075,129.403401 336.43972,132.632981 L328.323048,166.176574 C327.518693,169.479553 324.22815,171.461341 320.937608,170.653946" id="Path" fill="#F86D70" fill-rule="nonzero"></path>
                                <path d="M310.84661,108.998326 C310.84661,108.998326 322.107578,154.139048 334.099779,162.359797 C339.584017,166.103174 349.601892,155.753838 349.601892,159.644014 C349.601892,163.53419 355.159252,179.094894 341.850835,177.920501 C334.904134,177.333305 324.666889,176.012113 318.45142,177.920501 C312.23595,179.828889 285.253499,200.82116 285.253499,200.82116 C285.253499,200.82116 309.603515,205.959127 315.818985,207.133521 C322.034456,208.307913 404.590518,216.528663 410.367249,207.573918 C416.143979,198.619173 410.001633,192.527011 404.298025,183.278668 C401.153729,178.214099 383.311674,173.296329 378.997407,165.075581 C374.68314,156.854832 369.345148,125.733424 368.90641,121.476249 C368.46767,117.219076 366.200852,103.933758 359.619766,98.502192 C353.038681,93.0706256 333.222301,86.4646659 328.176802,90.3548419 C323.131303,94.2450179 310.773487,108.998326 310.84661,108.998326" id="Path" fill="#F4C2B8" fill-rule="nonzero"></path>
                                <path d="M340.242126,116.338281 C340.242126,117.806272 339.364647,119.054065 338.267799,119.054065 C337.170953,119.054065 336.293474,117.879671 336.293474,116.338281 C336.293474,114.796891 337.170953,113.622498 338.267799,113.622498 C339.364647,113.622498 340.242126,114.870291 340.242126,116.338281" id="Path" fill="#385266" fill-rule="nonzero"></path>
                                <path d="M322.765687,122.870841 C322.765687,124.338832 321.888209,125.586624 320.791362,125.586624 C319.694514,125.586624 318.817035,124.412231 318.817035,122.870841 C318.817035,121.32945 319.694514,120.155058 320.791362,120.155058 C321.888209,120.155058 322.765687,121.32945 322.765687,122.870841" id="Path" fill="#385266" fill-rule="nonzero"></path>
                                <path d="M329.273649,122.870841 L330.44362,139.826137 C330.44362,139.826137 335.708488,140.486732 336.366597,139.826137" id="Path" stroke="#385266" stroke-width="1.07"></path>
                                <path d="M334.831011,107.823934 C334.831011,107.823934 340.095879,105.768747 342.508944,108.264331" id="Path" stroke="#385266" stroke-width="1.07"></path>
                                <path d="M314.795261,115.384088 C314.795261,115.384088 319.84076,112.081107 322.180701,112.815104" id="Path" stroke="#385266" stroke-width="1.07"></path>
                                <path d="M345.068255,141.367527 C345.068255,141.367527 338.633416,143.275915 336.366597,145.404502 C334.465395,147.23949 334.831011,147.533089 334.831011,147.533089 C334.831011,147.533089 337.097829,148.413883 337.755937,148.120285 C337.609691,149.735075 337.829061,150.762669 338.706539,150.762669 C339.584017,150.762669 344.410146,149.07448 345.068255,141.367527" id="Path" fill="#FFFFFF" fill-rule="nonzero"></path>
                                <path d="M355.451745,128.669405 C355.451745,133.954172 351.210602,138.284746 345.87261,138.284746 C340.534618,138.284746 336.293474,134.027573 336.293474,128.669405 C336.293474,123.384638 340.534618,119.054065 345.87261,119.054065 C345.87261,119.054065 345.87261,119.054065 345.87261,119.054065 C351.137478,119.054065 355.451745,123.384638 355.451745,128.669405 Z" id="Path" stroke="#FFFFFF" stroke-width="1.07"></path>
                                <path d="M328.030555,136.449757 C328.030555,141.734524 323.716288,146.065098 318.45142,146.065098 C313.186551,146.065098 308.872284,141.734524 308.872284,136.449757 C308.872284,131.16499 313.186551,126.834417 318.45142,126.834417 C323.716288,126.834417 328.030555,131.16499 328.030555,136.449757 C328.030555,136.449757 328.030555,136.449757 328.030555,136.449757 Z" id="Path" stroke="#FFFFFF" stroke-width="1.07"></path>
                                <path d="M324.008781,128.669405 C324.886259,129.403401 336.805336,125.586624 336.805336,125.586624" id="Path" stroke="#FFFFFF" stroke-width="1.07"></path>
                                <path d="M336.805336,91.1622369 C347.700689,93.6578217 360.058505,117.732873 365.030881,127.128014 C366.566468,130.063997 368.613917,132.70638 371.173228,134.834967 C371.173228,134.834967 374.902509,99.8967828 374.025032,94.0982186 C373.147553,88.2996546 355.378622,76.7759257 355.378622,76.7759257 C355.378622,76.7759257 325.909984,88.6666524 336.805336,91.1622369" id="Path" fill="#385266" fill-rule="nonzero"></path>
                                <path d="M342.508944,89.1070496 C342.508944,89.1070496 309.311023,119.127464 310.115378,114.062895 C310.919733,108.998326 309.018531,101.805171 309.018531,101.805171 L305.947358,96.5204042 C305.947358,96.5204042 309.018531,87.1986615 310.84661,86.611465 C312.674689,86.0242687 338.340923,80.8129008 338.340923,80.8129008 L355.524869,88.1528555 L342.508944,89.1070496 Z" id="Path" fill="#385266" fill-rule="nonzero"></path>
                                <path d="M322.765687,208.014315 L334.099779,200.82116 L345.945733,209.922703 L379.436146,190.765422 L400.056881,204.711336 L396.254476,336.83052 L298.123177,336.83052 C298.123177,336.83052 327.153078,253.522034 324.008781,244.273691 C320.864484,235.025348 308.579791,221.446432 322.765687,208.014315" id="Path" fill="#2264C3" fill-rule="nonzero"></path>
                                <path d="M415.851486,183.939264 L417.898935,285.450837 C417.898935,285.450837 314.649015,329.490565 309.018531,328.095973 C303.388046,326.701382 300.536243,313.783061 300.536243,313.783061 C300.536243,313.783061 389.234651,276.202494 390.11213,264.164969 C390.989607,252.127443 385.50537,190.765422 385.50537,190.765422 L415.851486,183.939264 Z" id="Path" fill="#F4C2B8" fill-rule="nonzero"></path>
                                <path d="M409.416647,276.642891 C409.416647,276.642891 370.368873,300.571144 339.730264,318.113635 C372.050705,305.488913 419.142029,285.450837 419.142029,285.450837 L416.070856,196.563986 L409.416647,276.642891 Z" id="Path" fill="#F3B8B4" fill-rule="nonzero"></path>
                                <path d="M308.945407,316.058448 C308.945407,316.058448 290.372121,303.580525 286.715963,304.901716 C283.059804,306.222909 259.441019,318.84763 261.78096,319.288028 C264.120902,319.728425 267.850184,323.471802 267.557692,323.471802 C267.265199,323.471802 272.383821,327.728975 275.162501,328.169373 C277.941182,328.60977 307.702314,331.545752 313.405921,327.288579 C316.988956,324.499396 319.987007,321.123017 322.253825,317.23284 L308.945407,316.058448 Z" id="Path" fill="#F4C2B8" fill-rule="nonzero"></path>
                                <path d="M347.773812,158.983418 L363.787788,146.065098 C363.787788,146.065098 353.623666,175.791914 347.773812,176.819508 C348.285674,172.415535 352.599941,170.140149 347.773812,158.983418" id="Path" fill="#F3B8B4" fill-rule="nonzero"></path>
                                <line x1="99.2281463" y1="336.75712" x2="437.203453" y2="336.75712" id="Path" stroke="#385266" stroke-width="1.07"></line>
                                <path d="M382.580443,163.754389 L391.647716,164.635183 C404.736765,165.882975 415.120255,176.158912 416.582718,189.224031 C420.750739,225.116409 428.282426,291.543 427.404948,291.689799 C426.234978,291.909997 353.916159,312.46187 353.916159,312.46187 L347.700689,292.056797 L383.238552,263.724571 L382.580443,163.754389 Z" id="Path" fill="#2264C3" fill-rule="nonzero"></path>
                                <path d="M345.068255,283.469049 C346.09198,283.102051 390.258376,259.907795 390.258376,259.907795 L392.159579,209.555705" id="Path" stroke="#093F7F" stroke-width="1.07"></path>
                                <path d="M382.580443,163.754389 L353.916159,192.600411 L349.090029,172.709133 L322.253825,174.103725 L285.399746,196.563986 L296.148852,176.819508 L276.698088,169.039156 L232.531691,228.492789 L261.634714,249.191461 L328.103679,211.610893 C328.103679,211.610893 347.115704,225.630206 349.163153,225.630206 C351.210602,225.630206 382.946059,220.051841 384.920384,217.629656 C386.89471,215.20747 394.133904,191.05902 394.133904,190.618623 C394.133904,190.178225 382.580443,163.754389 382.580443,163.754389" id="Path" fill="#2264C3" fill-rule="nonzero"></path>
                                <line x1="324.008781" y1="190.692022" x2="316.623341" y2="217.776455" id="Path" stroke="#093F7F" stroke-width="1.07"></line>
                                <polyline id="Path" stroke="#093F7F" stroke-width="1.07" points="360.277875 186.21465 374.902509 188.563435 379.363023 169.479553"></polyline>
                                <polyline id="Path" stroke="#093F7F" stroke-width="1.07" points="349.528768 185.407255 338.633416 188.563435 341.850835 177.920501"></polyline>
                                <path d="M346.676965,71.4177589 C358.011056,71.2709598 367.443946,78.684314 373.001307,86.6848646 C376.072481,91.0888374 394.060781,138.284746 400.056881,166.83717 C384.408522,167.938163 365.177127,210.216302 352.673065,206.546325 C362.764063,192.600411 363.787788,119.641261 364.29965,117.806272 C364.811512,115.971284 365.323374,96.9608011 365.323374,96.9608011 L349.601892,93.5110224 L341.26585,86.6848646 C341.192727,86.6848646 335.342873,71.564558 346.676965,71.4177589" id="Path" fill="#385266" fill-rule="nonzero"></path>
                                <path d="M360.497244,113.475699 C359.766012,118.099871 356.987332,121.54965 354.354898,121.109252 C351.722464,120.668855 350.186877,116.55848 350.991232,111.934309 C351.795587,107.310137 354.501144,103.860358 357.133579,104.300756 C359.766012,104.741153 361.301599,108.851528 360.497244,113.475699" id="Path" fill="#F4C2B8" fill-rule="nonzero"></path>
                                <polygon id="Path" fill="#BCCEDD" fill-rule="nonzero" points="176.665587 294.55238 181.711086 287.139026 207.011703 287.139026 201.673712 294.55238"></polygon>
                                <polygon id="Path" fill="#FFFFFF" fill-rule="nonzero" points="206.93858 314.296858 183.539165 314.296858 177.835557 294.55238 201.527466 294.55238"></polygon>
                                <polygon id="Path" fill="#BCCEDD" fill-rule="nonzero" points="185.879107 314.296858 171.839458 314.296858 165.916481 294.55238 180.248622 294.55238"></polygon>
                                <polygon id="Path" fill="#FFFFFF" fill-rule="nonzero" points="180.248622 294.55238 170.961979 287.139026 156.410468 287.139026 165.916481 294.55238"></polygon>
                                <line x1="177.031202" y1="278.551279" x2="169.572638" y2="252.49444" id="Path" stroke="#00CFE1" stroke-width="1.07"></line>
                                <line x1="186.902831" y1="278.551279" x2="189.754635" y2="261.962982" id="Path" stroke="#00CFE1" stroke-width="1.07"></line>
                                <line x1="167.086451" y1="277.156688" x2="155.167374" y2="260.494991" id="Path" stroke="#00CFE1" stroke-width="1.07"></line>
                                <line x1="155.459867" y1="281.854259" x2="140.908355" y2="272.532517" id="Path" stroke="#00CFE1" stroke-width="1.07"></line>
                                <line x1="200.94248" y1="282.514855" x2="208.912906" y2="274.294106" id="Path" stroke="#00CFE1" stroke-width="1.07"></line>
                                <rect id="Rectangle" fill="#E3EAF1" fill-rule="nonzero" x="195.970104" y="8.8079456" width="118.898279" height="40.8101479"></rect>
                                <rect id="Rectangle" fill="#FFFFFF" fill-rule="nonzero" x="186.537215" y="3.08278096" width="120.580113" height="38.7549606"></rect>
                                <g id="monster" transform="translate(197.826309, 16.747912)" fill="#494949" fill-rule="nonzero">
                                    <path d="M94.2947979,9.51044078 C95.0344187,9.23625027 97.5432768,8.1132528 97.5432768,4.91111821 C97.5432768,2.59554727 95.7268722,-0.000168356183 91.8049072,-0.000168356183 L86.7258121,-0.000168356183 L86.7258121,16.2742626 L90.2236104,16.2742626 L90.2236104,9.84586245 L90.4020952,9.84586245 L95.4148876,16.2742626 L99.5946206,16.2742626 L94.2950214,9.51027243 L94.2947979,9.51044078 Z M92.1698778,6.73407896 L90.0827249,6.73407896 L90.0827249,3.3669553 L92.1698778,3.3669553 C93.2734061,3.3669553 93.999319,4.10536552 93.999319,5.05018041 C93.999319,5.87613585 93.3860364,6.73407896 92.1698778,6.73407896 Z" id="Shape"></path>
                                    <polygon id="Path" points="75.5343127 2.80593638 75.5343127 16.274431 83.3675006 16.274431 83.3675006 13.1879009 78.6116365 13.1879009 78.6116365 10.9431519 82.2484738 10.9431519 82.2484738 8.1372155 78.6116365 8.1372155 78.6116365 5.8924664 83.3675006 5.8924664 83.3675006 2.80593638"></polygon>
                                    <polygon id="Path" points="62.6655039 2.80593638 62.6655039 5.8924664 65.7428277 5.8924664 65.7316374 16.274431 69.0999083 16.274431 69.0999083 5.8924664 72.1772321 5.8924664 72.1772321 2.80593638"></polygon>
                                    <path d="M55.2284514,16.2744647 C52.1956648,16.2744647 50.6199072,14.5978279 50.3560966,14.3436101 L52.0595352,11.9622118 C52.325679,12.1939373 53.5330138,13.2477797 55.1255569,13.2477797 C56.2072082,13.2477797 56.5203119,12.7367289 56.5203119,12.3278253 C56.5203119,11.9033826 56.1971873,11.5258888 55.0558415,11.1064012 L54.050284,10.7365003 C52.1983505,10.0555556 51.0201271,8.78154828 51.0201271,6.88871972 C51.0201271,4.5678175 52.9052397,2.80591393 55.5820638,2.80591393 C57.9944619,2.80591393 59.3459107,3.94933301 59.4954127,4.07857444 L57.9005756,6.53101895 C57.5740995,6.31020298 56.6731151,5.82594326 55.6752228,5.82594326 C54.7413949,5.82594326 54.3156612,6.21865089 54.3156612,6.69005943 C54.3156612,7.30394218 54.8690647,7.56472592 55.8532041,7.926355 L56.7629169,8.26121544 C58.6688435,8.96202611 59.8677689,10.4016398 59.8677689,12.1245409 C59.8677689,14.4893841 57.972585,16.2744647 55.2283955,16.2744647" id="Path"></path>
                                    <polygon id="Path" points="35.8088593 16.274431 39.1659399 16.274431 39.1659399 9.82077731 46.9991279 16.274431 46.9991279 2.80593638 43.6420473 2.80593638 43.6420473 9.54018365 35.8088593 2.80593638"></polygon>
                                    <path d="M25.7376176,2.80593638 C21.9845135,2.80593638 19.0234565,5.82102726 19.0234565,9.54018365 C19.0234565,13.2595085 21.9845135,16.274431 25.7376176,16.274431 C29.4907218,16.274431 32.4517788,13.2593402 32.4517788,9.54018365 C32.4517788,5.82119561 29.4907218,2.80593638 25.7376176,2.80593638 M25.7376176,13.1216809 C23.7595699,13.1216809 22.2374136,11.5182566 22.2374136,9.53990313 C22.2374136,7.56188631 23.7595699,5.95812531 25.7376176,5.95812531 C27.7156655,5.95812531 29.2381574,7.56188631 29.2381574,9.53990313 C29.2381574,11.5182566 27.7157214,13.1216809 25.7376176,13.1216809" id="Shape"></path>
                                    <polygon id="Path" points="15.6663759 0 7.8337475 7.56536567 0 0 0 16.274431 3.4856008 16.274431 3.4856008 8.08221915 7.83318798 12.2832671 12.1811668 8.08221915 12.1811668 16.274431 15.6663759 16.274431"></polygon>
                                </g>
                                <rect id="Rectangle" fill="#E3EAF1" fill-rule="nonzero" x="19.012025" y="54.8294613" width="130.524864" height="43.5993307"></rect>
                                <rect id="Rectangle" fill="#FFFFFF" fill-rule="nonzero" x="11.9190772" y="49.6180935" width="129.208647" height="41.4707438"></rect>
                                <g id="stst-logo-blue" transform="translate(23.486069, 62.323594)" fill="#272727" fill-rule="nonzero">
                                    <path d="M14.5225234,12.7969162 C12.4991435,13.532107 10.3612325,14.0528672 8.14696766,14.3209056 L8.13933226,14.3209056 C7.88736419,14.3515385 7.63539611,14.3821715 7.38342804,14.4051462 L7.37579265,14.4051462 C6.78786714,14.4587539 6.18467085,14.5047033 5.58910995,14.527678 C4.87901811,14.5506527 4.17656167,14.5506527 3.48174063,14.527678 C2.68765944,14.4970451 1.9775676,14.2213485 1.41254828,13.7771707 C3.38248048,13.4555247 5.32950649,13.0649545 7.24599091,12.5135614 C8.81124712,12.0617253 10.3459618,11.5103321 11.8119578,10.8287489 C12.682393,10.4228623 13.5299219,9.96336799 14.3316385,9.45792429 C15.2249798,8.90653111 16.0648734,8.27855558 16.8513192,7.5816559 C16.904767,7.53570647 16.9582147,7.4820988 17.0192979,7.43614937 C17.7675668,9.5115319 16.8055069,11.9698264 14.5301588,12.7969162 M15.6067497,5.36842504 C15.4616771,5.4603239 15.32424,5.55988099 15.1868028,5.65943809 C14.629419,6.05766648 14.0567643,6.4405784 13.4764742,6.80817383 L13.3619432,6.87709798 C12.7434761,7.26766813 12.1097382,7.64292181 11.468365,8.002859 C11.1247722,8.18665672 10.7811794,8.37811268 10.4375865,8.55425216 C9.78094238,8.89121464 9.11666296,9.21286064 8.4447481,9.5115319 C7.96371815,9.7259626 7.49032359,9.93273509 7.00165824,10.124191 C5.39822506,10.767483 3.75661489,11.3188762 2.09209854,11.7553958 L0.267238864,12.2072318 C-0.00763539611,11.4950157 -0.068718565,10.6909006 0.160343318,9.87912739 C0.954424519,7.1221616 2.03101536,5.23823499 3.55809459,2.80291521 C3.932229,2.21323086 4.39035276,1.70778714 4.90192431,1.29424227 C5.27605871,0.995570979 5.6883701,0.750507352 6.11595228,0.551393156 C8.18514464,-0.382911914 10.7200961,-0.107215336 12.5220496,1.57759709 C13.7284422,2.71867459 14.5072526,4.07418277 15.6067497,5.36842504 M23.9751438,12.8581821 C23.2116042,12.5518525 22.6007725,12.1306494 22.1273779,11.5792563 C21.9899409,11.4031168 21.9288576,11.2422938 21.9288576,11.0738126 C21.9288576,10.8287489 22.0357532,10.60666 22.2495443,10.4228623 C22.4098876,10.2926723 22.5778663,10.2314063 22.7534804,10.2314063 C22.9749069,10.2314063 23.1734272,10.3386217 23.3337705,10.5377359 C23.6544572,10.9436225 24.0820393,11.2576103 24.6012462,11.4643827 C25.135724,11.6788134 25.7160141,11.7860287 26.3573874,11.7860287 C27.2889057,11.7860287 27.9913621,11.6098892 28.4571213,11.2652685 C28.9305159,10.9206478 29.1672131,10.4611535 29.1748486,9.90210209 C29.1748486,9.38134189 28.9457866,8.95248054 28.4723921,8.60020159 C27.9989976,8.25558087 27.2583642,7.99520077 26.2504918,7.81906129 C24.9448391,7.58931414 23.959873,7.19108575 23.3108644,6.60905964 C22.6618556,6.04235001 22.341169,5.34545032 22.341169,4.5413353 C22.341169,3.48449842 22.7153034,2.66506692 23.4712077,2.09069905 C24.2271119,1.51633118 25.1662656,1.21765989 26.3039396,1.21765989 C27.1896455,1.21765989 27.9531852,1.38614113 28.6098292,1.70778714 C29.2664733,2.02943314 29.7933157,2.48892744 30.1979916,3.06329531 C30.3048871,3.24709303 30.3583349,3.41557427 30.3583349,3.56873904 C30.3583349,3.81380266 30.2514394,4.01291686 30.0376483,4.15076515 C29.9383882,4.22734753 29.8238572,4.25798049 29.6558785,4.25798049 C29.3733689,4.25798049 29.1366716,4.15076515 28.9534221,3.93633448 C28.296778,3.12456122 27.4034367,2.71867459 26.2657626,2.71867459 C25.5327646,2.71867459 24.9448391,2.88715583 24.5019861,3.20880184 C24.0591331,3.53044785 23.8453421,3.94399272 23.8453421,4.4417782 C23.8453421,4.96253841 24.0514978,5.37608327 24.4638092,5.69007104 C24.8761205,6.00405881 25.6167539,6.24912244 26.6704386,6.4405784 C28.0982577,6.7009585 29.1214008,7.1221616 29.7398679,7.71184595 C30.3506996,8.29387206 30.6561154,9.02140469 30.6561154,9.89444389 C30.6561154,10.5607106 30.4728659,11.1580532 30.1063668,11.6711551 C29.7398679,12.1919153 29.2206609,12.5901437 28.5716523,12.888815 C27.9150082,13.1798281 27.1743747,13.3253346 26.349752,13.3253346 C25.5327646,13.3253346 24.7386834,13.1721698 23.9827792,12.8734986 L23.9751438,12.8581821 Z M37.4897949,12.0234341 C37.6119613,12.1612824 37.6730444,12.3374219 37.6730444,12.5518525 C37.6730444,12.7356503 37.6195966,12.9041315 37.5050657,13.0419798 C37.3447224,13.2257775 37.1385667,13.3176764 36.8865986,13.3176764 L36.4895581,13.3176764 C35.832914,13.3176764 35.2297176,13.1491951 34.7105107,12.8198909 C34.1836684,12.4905866 33.7789924,12.0387506 33.481212,11.4720409 C33.1834315,10.9053313 33.038359,10.2620393 33.038359,9.5498231 L33.038359,4.87829779 L32.2824548,4.87829779 C32.0839345,4.87829779 31.9235912,4.81703188 31.8014248,4.69450007 C31.6792584,4.57196825 31.6181753,4.41880349 31.6181753,4.23500577 C31.6181753,4.04354981 31.6792584,3.88272681 31.8014248,3.75253676 C31.9235912,3.63000495 32.0762991,3.56873904 32.2824548,3.56873904 L33.038359,3.56873904 L33.038359,2.51190216 C33.038359,2.28981325 33.1070776,2.10601553 33.2292439,1.96816724 C33.366681,1.82266071 33.5270243,1.75373657 33.7484508,1.75373657 C33.9546065,1.75373657 34.1378561,1.83031895 34.2752932,1.96816724 C34.4127302,2.11367377 34.4814489,2.28981325 34.4814489,2.51190216 L34.4814489,3.56873904 L36.5964536,3.56873904 C36.7949739,3.56873904 36.9553172,3.63000495 37.0774835,3.75253676 C37.1996499,3.88272681 37.260733,4.03589158 37.260733,4.23500577 C37.260733,4.41880349 37.1996499,4.57196825 37.0774835,4.69450007 C36.9553172,4.82469012 36.8026092,4.87829779 36.5964536,4.87829779 L34.4814489,4.87829779 L34.4814489,9.54216489 C34.4814489,10.2084316 34.6646984,10.7521665 35.0388328,11.1733697 C35.4129672,11.5945728 35.8939972,11.8090034 36.4819226,11.8090034 L36.9934942,11.8090034 C37.1920145,11.8090034 37.3599932,11.8779276 37.4821595,12.0234341 L37.4897949,12.0234341 Z M62.1292182,12.8581821 C61.3656786,12.5518525 60.7548469,12.1306494 60.2814523,11.5792563 C60.1440152,11.4031168 60.082932,11.2422938 60.082932,11.0738126 C60.082932,10.8287489 60.1898276,10.60666 60.4036187,10.4228623 C60.563962,10.2926723 60.7319407,10.2314063 60.9075548,10.2314063 C61.1289813,10.2314063 61.3275016,10.3386217 61.4878449,10.5377359 C61.8085315,10.9436225 62.2361137,11.2576103 62.7553206,11.4643827 C63.2897984,11.6788134 63.8700885,11.7860287 64.5114618,11.7860287 C65.4429801,11.7860287 66.1454365,11.6098892 66.6111957,11.2652685 C67.0845903,10.9206478 67.3212875,10.4611535 67.328923,9.90210209 C67.328923,9.38134189 67.099861,8.95248054 66.6264665,8.60020159 C66.1530719,8.25558087 65.4124385,7.99520077 64.4045662,7.81906129 C63.0989135,7.58931414 62.1139474,7.19108575 61.4649387,6.60905964 C60.81593,6.04235001 60.4952434,5.34545032 60.4952434,4.5413353 C60.4952434,3.48449842 60.8693778,2.66506692 61.6252821,2.09069905 C62.3811863,1.51633118 63.32034,1.21765989 64.458014,1.21765989 C65.3437199,1.21765989 66.1072596,1.38614113 66.7639036,1.70778714 C67.4205477,2.02943314 67.94739,2.48892744 68.352066,3.06329531 C68.4589615,3.24709303 68.5124093,3.41557427 68.5124093,3.56873904 C68.5124093,3.81380266 68.4055138,4.01291686 68.1917227,4.15076515 C68.0924625,4.22734753 67.9779316,4.25798049 67.8099529,4.25798049 C67.5274433,4.25798049 67.290746,4.15076515 67.1074965,3.93633448 C66.4508524,3.12456122 65.557511,2.71867459 64.419837,2.71867459 C63.686839,2.71867459 63.0989135,2.88715583 62.6560605,3.20880184 C62.2132075,3.53044785 61.9994165,3.94399272 61.9994165,4.4417782 C61.9994165,4.96253841 62.2055722,5.37608327 62.6178836,5.69007104 C63.0301949,6.00405881 63.7708283,6.24912244 64.824513,6.4405784 C66.2523321,6.7009585 67.2754752,7.1221616 67.8939422,7.71184595 C68.504774,8.29387206 68.8101898,9.02140469 68.8101898,9.89444389 C68.8101898,10.5607106 68.6269403,11.1580532 68.2604412,11.6711551 C67.8939422,12.1919153 67.3747353,12.5901437 66.7257267,12.888815 C66.0690826,13.1798281 65.3284491,13.3253346 64.5038264,13.3253346 C63.6944744,13.3253346 62.8927578,13.1721698 62.1368535,12.8734986 L62.1292182,12.8581821 Z M75.6667755,12.0234341 C75.7889418,12.1612824 75.850025,12.3374219 75.850025,12.5518525 C75.850025,12.7356503 75.7965772,12.9041315 75.6820463,13.0419798 C75.521703,13.2257775 75.3155472,13.3176764 75.0635792,13.3176764 L74.6665386,13.3176764 C74.0098946,13.3176764 73.4066983,13.1491951 72.8874913,12.8198909 C72.360649,12.4905866 71.955973,12.0387506 71.6581925,11.4720409 C71.3604121,10.9053313 71.2153396,10.2620393 71.2153396,9.5498231 L71.2153396,4.87829779 L70.4594354,4.87829779 C70.2609151,4.87829779 70.1005717,4.81703188 69.9784054,4.69450007 C69.8562391,4.57196825 69.7951558,4.41880349 69.7951558,4.23500577 C69.7951558,4.04354981 69.8562391,3.88272681 69.9784054,3.75253676 C70.1005717,3.63000495 70.2532796,3.56873904 70.4594354,3.56873904 L71.2153396,3.56873904 L71.2153396,2.51190216 C71.2153396,2.28981325 71.2840581,2.10601553 71.4062244,1.96816724 C71.5436616,1.82266071 71.7040049,1.75373657 71.9254314,1.75373657 C72.1315871,1.75373657 72.3148366,1.83031895 72.4522738,1.96816724 C72.5897109,2.11367377 72.6584294,2.28981325 72.6584294,2.51190216 L72.6584294,3.56873904 L74.7734341,3.56873904 C74.9719544,3.56873904 75.1322978,3.63000495 75.2544641,3.75253676 C75.3766304,3.88272681 75.4377136,4.03589158 75.4377136,4.23500577 C75.4377136,4.41880349 75.3766304,4.57196825 75.2544641,4.69450007 C75.1322978,4.82469012 74.9795898,4.87829779 74.7734341,4.87829779 L72.6584294,4.87829779 L72.6584294,9.54216489 C72.6584294,10.2084316 72.8416789,10.7521665 73.2158133,11.1733697 C73.5899478,11.5945728 74.0709777,11.8090034 74.6589032,11.8090034 L75.1704747,11.8090034 C75.3613597,11.8090034 75.5293384,11.8779276 75.6591401,12.0234341 L75.6667755,12.0234341 Z M56.7309931,3.30835894 C55.9521827,2.8412064 55.0817476,2.61145925 54.1273231,2.61145925 C53.1805339,2.61145925 52.3024633,2.8412064 51.5236529,3.30835894 C50.7448425,3.77551147 50.1340109,4.42646173 49.6835225,5.23823499 C49.2330341,6.05766648 49.0116076,6.96899684 49.0116076,7.96456781 L49.0116076,12.4599537 C49.0116076,12.5365361 49.0192431,12.597802 49.0268784,12.6437514 L49.0268784,16.9170484 C49.0268784,17.1391373 49.0955971,17.3305932 49.2253987,17.4684415 C49.3552005,17.6062898 49.5308146,17.6828722 49.7522411,17.6828722 C49.9660321,17.6828722 50.1492816,17.6062898 50.2867188,17.4684415 C50.4317914,17.322935 50.4928745,17.1391373 50.4928745,16.9170484 L50.4928745,11.4031168 C50.9128213,11.9774847 51.4396636,12.4446372 52.0810369,12.7815997 C52.7376809,13.1338787 53.4783144,13.3100181 54.2723956,13.3100181 C55.1962785,13.3100181 56.0514428,13.080271 56.7997117,12.6054602 C57.5479805,12.1383077 58.1511768,11.4950157 58.5863943,10.6832424 C59.0216119,9.8714691 59.2354031,8.96013878 59.2354031,7.96456781 C59.2354031,6.97665508 59.0139766,6.05000824 58.5634882,5.23823499 C58.1282706,4.42646173 57.5098035,3.77551147 56.7309931,3.30835894 L56.7309931,3.30835894 Z M57.8152194,7.96456781 C57.8152194,8.70741692 57.6472406,9.3890001 57.3341895,9.97868449 C57.0135028,10.5760271 56.5706498,11.0508378 56.0132659,11.3878003 C55.4558819,11.7247628 54.8221441,11.9009023 54.1349584,11.9009023 C53.1881694,11.9009023 52.3635465,11.5792563 51.6992671,10.958939 C51.0349876,10.3309634 50.6303117,9.5115319 50.5081453,8.53893568 C50.5081453,8.50064449 50.5005099,8.4623533 50.4852391,8.43172035 C50.4699683,8.33216325 50.4699683,8.17899848 50.4699683,7.95690958 C50.4699683,7.21406046 50.637947,6.53247726 50.9509983,5.94279291 C51.2716849,5.34545032 51.7145379,4.87063955 52.2642864,4.51836059 C52.8140349,4.17373986 53.4477728,3.99760038 54.1349584,3.99760038 C54.8221441,3.99760038 55.4482466,4.17373986 56.0132659,4.51836059 C56.5706498,4.86298131 57.0135028,5.34545032 57.3341895,5.94279291 C57.6472406,6.54779373 57.8152194,7.2217187 57.8152194,7.96456781 Z M84.1420652,3.3007007 C83.3708902,2.8412064 82.500455,2.61145925 81.5307597,2.61145925 C80.5610644,2.61145925 79.6829938,2.8412064 78.9118189,3.3007007 C78.1330084,3.760195 77.5221768,4.40348701 77.0793238,5.22291851 C76.6364708,6.04235001 76.4150443,6.9613386 76.4150443,7.96456781 C76.4150443,8.96779702 76.6364708,9.89444389 77.0793238,10.6985589 C77.5221768,11.5103321 78.1330084,12.1536242 78.9118189,12.6131185 C79.6906293,13.0726127 80.5686998,13.3023599 81.5307597,13.3023599 C82.4928196,13.3023599 83.3785255,13.0726127 84.1497006,12.6131185 C84.928511,12.1536242 85.5393427,11.5103321 85.9821956,10.6985589 C86.4250486,9.8867856 86.6464751,8.96779702 86.6464751,7.96456781 C86.6464751,6.9613386 86.4250486,6.03469177 85.9745603,5.22291851 C85.5240719,4.41114525 84.9056048,3.760195 84.1420652,3.3007007 Z M83.4167025,11.4031168 C82.866954,11.7400793 82.2255808,11.9162188 81.5307597,11.9162188 C80.843574,11.9162188 80.2174716,11.7400793 79.6524523,11.4031168 C79.0950684,11.0661543 78.6522154,10.5836853 78.3315287,9.99400099 C78.0108421,9.39665839 77.8504988,8.7227334 77.8504988,7.97988429 C77.8504988,7.2217187 78.0184775,6.54013549 78.3315287,5.94279291 C78.6522154,5.34545032 79.0950684,4.87063955 79.6524523,4.53367706 C80.2098362,4.19671458 80.843574,4.0205751 81.5307597,4.0205751 C82.2255808,4.0205751 82.8593186,4.19671458 83.4167025,4.53367706 C83.9740864,4.87063955 84.409304,5.35310856 84.7223553,5.94279291 C85.0354066,6.54013549 85.1957499,7.2217187 85.1957499,7.97988429 C85.1957499,8.7227334 85.0354066,9.4043166 84.7223553,9.99400099 C84.409304,10.5836853 83.9664511,11.0661543 83.4167025,11.4031168 Z M95.3050143,3.26240951 C94.617829,2.87949759 93.8237472,2.68804164 92.9533119,2.68804164 C92.2813974,2.68804164 91.6552949,2.82588993 91.0750048,3.09392827 C90.5252563,3.34665013 90.0442264,3.70658733 89.6548212,4.15076515 L89.6548212,3.58405552 C89.6548212,3.36196661 89.5861026,3.17051065 89.4563009,3.03266236 C89.3188637,2.88715583 89.150885,2.81823169 88.9294586,2.81823169 C88.7156674,2.81823169 88.532418,2.89481407 88.3949808,3.03266236 C88.2499083,3.17816889 88.1888251,3.36196661 88.1888251,3.58405552 L88.1888251,12.5595108 C88.1888251,12.7815997 88.2575437,12.9653974 88.3949808,13.1032457 C88.5400533,13.241094 88.7080321,13.3100181 88.9294586,13.3100181 C89.1432497,13.3100181 89.3188637,13.241094 89.4563009,13.1032457 C89.593738,12.9577392 89.6548212,12.7815997 89.6548212,12.5595108 L89.6548212,6.90773093 C89.6548212,6.39462897 89.7998937,5.91981819 90.0747679,5.49861509 C90.3496422,5.07741198 90.731412,4.7404495 91.2048066,4.51070235 C91.6858365,4.27329696 92.2203143,4.15076515 92.8158752,4.15076515 C93.7779347,4.15076515 94.5643808,4.4417782 95.1675776,5.03146255 C95.7631377,5.61348866 96.068554,6.47886959 96.068554,7.59697238 L96.068554,12.5595108 C96.068554,12.7662832 96.1372728,12.9500809 96.2747095,13.1032457 C96.4350534,13.2717269 96.6488437,13.3406511 96.9084474,13.3100181 C97.015343,13.3023599 97.1146029,13.2640687 97.1985922,13.1951446 C97.4123834,13.0343216 97.5269148,12.8198909 97.5269148,12.5595108 L97.5269148,7.59697238 C97.5269148,6.57842669 97.3360298,5.69007104 96.9389894,4.95488017 C96.5419481,4.21968929 95.9998352,3.6606379 95.31265,3.27772599 L95.3050143,3.26240951 Z M47.0111339,5.10804493 C46.6293641,4.32690463 46.0796155,3.71424557 45.3847945,3.27006775 C44.6899735,2.82588993 43.8729861,2.61145925 42.9796447,2.61145925 C42.0557618,2.61145925 41.2158683,2.8412064 40.4905056,3.29304246 C39.765143,3.74487852 39.1924882,4.38817054 38.7801768,5.19994379 C38.3678655,6.01171705 38.1693452,6.93836388 38.1693452,7.97222605 C38.1693452,8.99077174 38.3831362,9.9250768 38.8183538,10.7215336 C39.2535714,11.5333069 39.8567677,12.1689406 40.6279427,12.6284349 C41.3991178,13.080271 42.2771883,13.3100181 43.2621544,13.3100181 C43.8348091,13.3100181 44.4456407,13.1874863 45.0641078,12.9577392 C45.6825749,12.727992 46.2094173,12.4216625 46.6140933,12.0617253 C46.7591658,11.923877 46.820249,11.7783705 46.820249,11.5945728 C46.820249,11.4031168 46.7362596,11.2116608 46.5759163,11.0508378 C46.4308438,10.9436225 46.301042,10.8900148 46.1559695,10.8900148 C45.97272,10.8900148 45.8047413,10.958939 45.6367626,11.0814708 C45.3771591,11.3188762 45.0182955,11.5256486 44.5754425,11.6711551 C44.1325896,11.8319781 43.6897366,11.9085605 43.2621544,11.9085605 C42.2542821,11.9085605 41.3914823,11.5869145 40.7195675,10.9436225 C40.055288,10.3079887 39.6658828,9.47324079 39.5589872,8.45469506 C39.5589872,8.45469506 39.2459361,6.30273011 40.6966612,4.85532307 C41.2922222,4.26563872 42.0633972,3.95930919 42.9872801,3.95930919 C43.8958923,3.95930919 44.6365257,4.25798049 45.2168158,4.85532307 C45.7818351,5.43734918 46.125428,6.21848949 46.2246881,7.17576927 L41.2158683,7.17576927 C41.0249833,7.17576927 40.86464,7.23703518 40.750109,7.35956699 C40.6355781,7.4820988 40.5744949,7.62760533 40.5744949,7.81140305 C40.5744949,8.002859 40.6355781,8.15602377 40.750109,8.27855558 C40.8722754,8.40108739 41.017348,8.4623533 41.2158683,8.4623533 L46.9195091,8.4623533 C47.1180294,8.4623533 47.2860081,8.39342915 47.4158098,8.27855558 C47.5456116,8.14836553 47.6066948,7.97988429 47.6066948,7.76545362 C47.6066948,6.77754088 47.4158098,5.881527 47.0264047,5.1003867 L47.0111339,5.10804493 Z M107.888147,5.10804493 C107.506377,4.32690463 106.956629,3.71424557 106.261808,3.27006775 C105.566987,2.82588993 104.75,2.61145925 103.856658,2.61145925 C102.932775,2.61145925 102.092881,2.8412064 101.367519,3.29304246 C100.642156,3.74487852 100.069501,4.38817054 99.6571902,5.19994379 C99.2448783,6.01171705 99.0463586,6.93836388 99.0463586,7.97222605 C99.0463586,8.99077174 99.2601498,9.9250768 99.695367,10.7215336 C100.130584,11.5333069 100.733781,12.1689406 101.504956,12.6284349 C102.276131,13.080271 103.154201,13.3100181 104.139168,13.3100181 C104.711822,13.3100181 105.322654,13.1874863 105.941121,12.9577392 C106.559588,12.727992 107.086431,12.4216625 107.491107,12.0617253 C107.636179,11.923877 107.697262,11.7783705 107.697262,11.5945728 C107.697262,11.4031168 107.613273,11.2116608 107.45293,11.0508378 C107.307857,10.9436225 107.178056,10.8900148 107.032982,10.8900148 C106.849733,10.8900148 106.681754,10.958939 106.513776,11.0814708 C106.254172,11.3188762 105.895308,11.5256486 105.452455,11.6711551 C105.009602,11.8319781 104.56675,11.9085605 104.139168,11.9085605 C103.131295,11.9085605 102.268495,11.5869145 101.596581,10.9436225 C100.932301,10.3079887 100.542896,9.47324079 100.436001,8.45469506 C100.436001,8.45469506 100.122949,6.30273011 101.573674,4.85532307 C102.169236,4.26563872 102.94041,3.95930919 103.864294,3.95930919 C104.772906,3.95930919 105.513539,4.25798049 106.093829,4.85532307 C106.658848,5.43734918 107.002441,6.21848949 107.101701,7.17576927 L102.092881,7.17576927 C101.901997,7.17576927 101.741653,7.23703518 101.627123,7.35956699 C101.512591,7.4820988 101.451508,7.62760533 101.451508,7.81140305 C101.451508,8.002859 101.512591,8.15602377 101.627123,8.27855558 C101.749289,8.40108739 101.894361,8.4623533 102.092881,8.4623533 L107.796522,8.4623533 C107.995043,8.4623533 108.163021,8.39342915 108.292823,8.27855558 C108.422625,8.14836553 108.483708,7.97988429 108.483708,7.76545362 C108.476073,6.77754088 108.285188,5.881527 107.903418,5.1003867 L107.888147,5.10804493 Z" id="Shape"></path>
                                </g>
                                <rect id="Rectangle" fill="#E3EAF1" fill-rule="nonzero" x="172.13195" y="67.8945806" width="81.459215" height="46.5353126"></rect>
                                <rect id="Rectangle" fill="#FFFFFF" fill-rule="nonzero" x="165.843357" y="60.9216238" width="80.4354906" height="46.6821117"></rect>
                                <g id="logo-pos" transform="translate(180.206816, 71.624753)" fill-rule="nonzero">
                                    <path d="M6.05962957,12.1555153 L8.23638971,8.0250004 C8.35405242,7.78897097 8.41288378,7.67095626 8.70704055,7.67095626 L11.0602947,7.67095626 C11.1779574,7.67095626 11.2367888,7.72996362 11.2956202,7.78897097 C11.2956202,7.84797833 11.3544515,7.84797833 11.3544515,7.90698569 C11.3544515,7.96599304 11.3544515,8.0250004 11.2956202,8.0250004 L7.88340158,14.2797801 C7.88340158,14.2797801 7.88340158,14.2797801 7.88340158,14.2797801 C7.88340158,14.2797801 7.88340158,14.2797801 7.88340158,14.2797801 C7.88340158,14.2797801 11.4721142,20.8295967 11.4721142,20.8295967 C11.4721142,20.888604 11.5309456,20.9476113 11.5309456,20.9476113 C11.5309456,21.0066186 11.5309456,21.065626 11.4721142,21.065626 C11.4132829,21.1246334 11.3544515,21.1836407 11.2367888,21.1836407 L8.88353462,21.1836407 C8.58937784,21.1836407 8.53054649,21.0066186 8.41288378,20.8295967 C8.41288378,20.8295967 6.00079822,16.4040449 6.00079822,16.4040449 C6.00079822,16.4040449 6.00079822,16.4040449 6.00079822,16.4040449 C6.00079822,16.4040449 6.00079822,16.4040449 6.00079822,16.4040449 L3.58871266,20.8295967 C3.47104995,21.065626 3.41221859,21.1836407 3.11806182,21.1836407 L0.764807616,21.1836407 C0.647144906,21.1836407 0.588313551,21.1246334 0.529482196,21.065626 C0.470650841,21.0066186 0.470650841,20.888604 0.529482196,20.7705893 L4.11819486,14.2207727 C4.11819486,14.2207727 4.11819486,14.2207727 4.11819486,14.2207727 L0.823638971,8.08400775 C0.764807616,7.96599304 0.764807616,7.90698569 0.823638971,7.78897097 C0.882470326,7.72996362 0.941301678,7.67095626 1.05896439,7.67095626 L3.41221859,7.67095626 C3.70637537,7.67095626 3.76520672,7.84797833 3.88286943,8.0250004 L6.05962957,12.1555153 C6.05962957,12.1555153 6.05962957,12.1555153 6.05962957,12.1555153 C6.05962957,12.1555153 6.05962957,12.1555153 6.05962957,12.1555153 Z" id="Path" fill="#404040"></path>
                                    <path d="M24.2385183,15.8139713 C24.2385183,15.8139713 24.2385183,15.8139713 24.2385183,15.8139713 L24.2385183,8.0250004 C24.2385183,7.84797833 24.356181,7.67095626 24.5915065,7.67095626 L26.4741098,7.67095626 C26.6506039,7.67095626 26.827098,7.78897097 26.827098,8.0250004 L26.827098,20.9476113 C26.827098,21.1246334 26.7094352,21.3016554 26.4741098,21.3016554 L24.5326751,21.3016554 C24.2973497,21.3016554 24.1208556,21.1246334 24.0620242,20.9476113 C24.0620242,20.9476113 20.0614921,13.1586403 20.0614921,13.1586403 C20.0614921,13.1586403 20.0614921,13.1586403 20.0614921,13.1586403 C20.0614921,13.1586403 20.0614921,13.1586403 20.0614921,13.1586403 L20.0614921,20.9476113 C20.0614921,21.1246334 19.9438294,21.3016554 19.708504,21.3016554 L17.8259006,21.3016554 C17.6494066,21.3016554 17.4729125,21.1836407 17.4729125,20.9476113 L17.4729125,8.0250004 C17.4729125,7.84797833 17.6494066,7.67095626 17.8259006,7.67095626 L19.7673353,7.67095626 C20.0614921,7.67095626 20.1203234,7.84797833 20.2379861,8.0250004 L24.2385183,15.8139713 C24.2385183,15.8139713 24.2385183,15.8139713 24.2385183,15.8139713 Z" id="Path" fill="#404040"></path>
                                    <path d="M12.8252354,20.9476113 L12.8252354,8.0250004 C12.8252354,7.84797833 12.9428981,7.67095626 13.1782236,7.67095626 L15.0608269,7.67095626 C15.237321,7.67095626 15.4138151,7.78897097 15.4138151,8.0250004 L15.4138151,20.9476113 C15.4138151,21.1246334 15.2961524,21.3016554 15.0608269,21.3016554 L13.1782236,21.3016554 C12.9428981,21.3016554 12.8252354,21.1246334 12.8252354,20.9476113 Z" id="Path" fill="#404040"></path>
                                    <path d="M34.4751741,9.85422847 C33.4750411,9.85422847 32.6514021,10.0902579 32.0042572,10.9753682 C31.4159437,11.8014711 31.0629555,12.8636036 31.0629555,14.3977948 C31.0629555,15.8729787 31.1217869,17.0531258 31.651269,17.8202215 C32.1219199,18.5873171 32.9455588,19.1183833 33.9456919,19.1183833 L33.9456919,19.1183833 C35.0634876,19.1183833 35.8871266,18.8233465 35.8871266,18.8233465 C35.8871266,18.8233465 35.8871266,18.8233465 35.8871266,18.8233465 L35.8871266,15.9319861 C35.8871266,15.9319861 35.8871266,15.9319861 35.8871266,15.9319861 L33.9456919,15.9319861 C33.7691979,15.9319861 33.5927038,15.754964 33.5927038,15.5779419 L33.5927038,13.925736 C33.5927038,13.7487139 33.7103665,13.5716918 33.9456919,13.5716918 L38.1227181,13.5716918 C38.2992122,13.5716918 38.4757063,13.7487139 38.4757063,13.925736 C38.4757063,13.925736 38.4757063,20.4755525 38.4757063,20.4755525 C38.3580436,20.5345599 36.2989461,21.5376849 33.8280292,21.5376849 C31.7689317,21.5376849 30.5923046,20.7705893 29.7686657,19.6494495 C28.827364,18.410295 28.4743758,16.3450376 28.4743758,14.4568022 C28.4743758,13.099633 28.6508699,11.8604785 29.1215208,10.7983461 C29.5921716,9.67720638 30.4158106,8.79209602 31.2394496,8.32003717 C32.1807512,7.78897097 33.298547,7.55294155 34.4163427,7.55294155 L34.7104995,7.55294155 C36.4166088,7.55294155 37.4167418,7.96599304 37.76973,8.14301511 C38.0638868,8.26102982 38.1227181,8.37904453 38.1227181,8.5560666 L38.1227181,10.1492652 C38.1227181,10.2672799 38.0638868,10.3262872 38.0050554,10.3852946 C37.946224,10.444302 37.8285613,10.444302 37.76973,10.444302 C37.1225851,10.2082725 36.1224521,9.91323577 34.7693309,9.91323577 L34.4751741,9.91323577 L34.4751741,9.85422847 Z" id="Path" fill="#404040"></path>
                                    <g id="Group" transform="translate(41.770262, 0.000000)">
                                        <path d="M10.4719812,0.177022068 C10.1778244,0.177022068 10.0013303,0.354044135 9.88366764,0.590073558 C9.88366764,0.590073558 5.35365331,8.67408131 5.17715925,8.91011073 C5.17715925,8.91011073 8.17755836,14.3977948 8.17755836,14.3977948 C8.29522107,14.5748169 8.47171513,14.8108463 8.76587191,14.8108463 L10.8838007,14.8108463 C11.0014634,14.8108463 11.1191261,14.751839 11.1779574,14.6928316 C11.2367888,14.5748169 11.2367888,14.4568022 11.1779574,14.3387874 L8.23638971,8.91011073 C8.23638971,8.91011073 8.23638971,8.91011073 8.23638971,8.91011073 L12.8840668,0.649080914 C12.9428981,0.531066203 12.9428981,0.413051491 12.8840668,0.295036779 C12.8252354,0.236029424 12.7075727,0.177022068 12.58991,0.177022068 L10.4719812,0.177022068 Z" id="Path" fill="#BDBDBD"></path>
                                        <path d="M1.64727795,3.0683825 C1.52961524,3.0683825 1.41195253,3.12738986 1.35312116,3.18639721 C1.29428981,3.30441193 1.29428981,3.42242664 1.35312116,3.54044135 L2.76507369,6.0187503 C2.76507369,6.0187503 2.76507369,6.0187503 2.76507369,6.0187503 L0.588313551,9.97224316 C0.529482196,10.0902579 0.529482196,10.2082725 0.588313551,10.3262872 C0.647144906,10.3852946 0.764807616,10.444302 0.882470326,10.444302 L2.94156775,10.444302 C3.23572453,10.444302 3.41221859,10.2082725 3.5298813,10.0312505 C3.5298813,10.0312505 5.70664144,6.13676501 5.82430415,6.0187503 C5.82430415,6.0187503 4.35352028,3.48143399 4.35352028,3.48143399 C4.23585757,3.30441193 4.0593635,3.0683825 3.76520672,3.0683825 L1.64727795,3.0683825 Z" id="Path" fill="#404040"></path>
                                    </g>
                                </g>
                                <rect id="Rectangle" fill="#E3EAF1" fill-rule="nonzero" x="0.146246347" y="140.85373" width="144.71076" height="54.0954659"></rect>
                                <rect id="Rectangle" fill="#D6DFEC" fill-rule="nonzero" x="92.5008143" y="142.46852" width="85.6272359" height="8.44094787"></rect>
                                <g id="Group" transform="translate(191.334917, 131.152174)" fill="#B0B0B0" fill-rule="nonzero">
                                    <path d="M8.82829297,12.947214 C8.82829297,10.5661172 10.7571637,8.70588527 13.0569711,8.70588527 C15.4309659,8.70588527 17.2856493,10.6405264 17.2856493,12.947214 C17.2856493,15.3283108 15.3567785,17.1885427 13.0569711,17.1885427 C10.6829764,17.1885427 8.82829297,15.3283108 8.82829297,12.947214 M6.52848556,12.947214 C6.52848556,16.5932685 9.495979,19.4952303 13.0569711,19.4952303 C16.6921506,19.4952303 19.5854567,16.5188592 19.5854567,12.947214 C19.5854567,9.30115948 16.6179632,6.39919772 13.0569711,6.39919772 C9.42179166,6.39919772 6.52848556,9.30115948 6.52848556,12.947214 M18.324272,6.10156062 C18.324272,6.92006265 18.991958,7.66415541 19.882206,7.66415541 C20.6982667,7.66415541 21.4401401,6.99447193 21.4401401,6.10156062 C21.4401401,5.20864931 20.7724541,4.53896583 19.882206,4.53896583 L19.882206,4.53896583 C18.991958,4.53896583 18.324272,5.28305859 18.324272,6.10156062 M7.86385761,23.3645126 C6.6026729,23.2901033 5.93498687,23.0668755 5.48986286,22.918057 C4.89636417,22.6948291 4.45124016,22.397192 4.00611614,21.9507364 C3.56099212,21.5042807 3.26424278,21.0578251 3.04168077,20.4625509 C2.8933061,20.0160952 2.67074409,19.3464117 2.59655676,18.081454 C2.52236942,16.7420871 2.52236942,16.2956314 2.52236942,12.8728047 C2.52236942,9.44997803 2.52236942,9.07793165 2.59655676,7.66415541 C2.67074409,6.39919772 2.8933061,5.72951424 3.04168077,5.28305859 C3.26424278,4.68778438 3.56099212,4.24132872 4.00611614,3.79487307 C4.45124016,3.34841741 4.89636417,3.05078031 5.48986286,2.82755248 C5.93498687,2.67873393 6.6026729,2.4555061 7.86385761,2.38109683 C9.19922965,2.30668755 9.64435367,2.30668755 12.9827838,2.30668755 C16.3954012,2.30668755 16.7663379,2.30668755 18.1758973,2.38109683 C19.437082,2.4555061 20.104768,2.67873393 20.549892,2.82755248 C21.1433907,3.05078031 21.5885148,3.34841741 22.0336388,3.79487307 C22.4787628,4.24132872 22.7755121,4.68778438 22.9980741,5.28305859 C23.1464488,5.72951424 23.3690108,6.39919772 23.4431982,7.66415541 C23.5173855,9.00352238 23.5173855,9.44997803 23.5173855,12.8728047 C23.5173855,16.2956314 23.5173855,16.6676778 23.4431982,18.081454 C23.3690108,19.3464117 23.1464488,20.0160952 22.9980741,20.4625509 C22.7755121,21.0578251 22.4787628,21.5042807 22.0336388,21.9507364 C21.5885148,22.397192 21.1433907,22.6948291 20.549892,22.918057 C20.104768,23.0668755 19.437082,23.2901033 18.1758973,23.3645126 C16.8405253,23.4389219 16.3954012,23.4389219 12.9827838,23.4389219 C9.64435367,23.4389219 9.27341699,23.4389219 7.86385761,23.3645126 M7.78967027,0.223227828 C6.45429823,0.297637103 5.48986286,0.520864931 4.67380216,0.818502034 C3.85774147,1.11613914 3.11586811,1.56259479 2.44818209,2.30668755 C1.78049606,3.05078031 1.33537205,3.72046379 0.964435367,4.53896583 C0.667686023,5.35746786 0.445124016,6.25037917 0.37093668,7.66415541 C0.296749344,9.00352238 0.296749344,9.44997803 0.296749344,12.947214 C0.296749344,16.44445 0.296749344,16.8909056 0.37093668,18.2302726 C0.445124016,19.5696395 0.667686023,20.5369601 0.964435367,21.3554622 C1.26118471,22.1739642 1.70630873,22.918057 2.44818209,23.5877404 C3.19005544,24.2574239 3.85774147,24.7038796 4.67380216,25.075926 C5.48986286,25.3735631 6.38011089,25.5967909 7.78967027,25.6712002 C9.12504232,25.7456094 9.57016633,25.7456094 13.0569711,25.7456094 C16.5437759,25.7456094 16.9888999,25.7456094 18.324272,25.6712002 C19.659644,25.5967909 20.6240794,25.3735631 21.4401401,25.075926 C22.2562008,24.7782889 22.9980741,24.3318332 23.6657602,23.5877404 C24.4076335,22.8436477 24.7785702,22.1739642 25.1495069,21.3554622 C25.4462562,20.5369601 25.6688182,19.6440488 25.7430056,18.2302726 C25.8171929,16.8909056 25.8171929,16.44445 25.8171929,12.947214 C25.8171929,9.44997803 25.8171929,9.00352238 25.7430056,7.66415541 C25.6688182,6.32478845 25.4462562,5.35746786 25.1495069,4.53896583 C24.8527575,3.72046379 24.4076335,2.97637103 23.6657602,2.30668755 C22.9238868,1.56259479 22.2562008,1.19054841 21.4401401,0.818502034 C20.6240794,0.520864931 19.7338314,0.297637103 18.324272,0.223227828 C16.9888999,0.148818552 16.5437759,0.148818552 13.0569711,0.148818552 C9.57016633,0.148818552 9.12504232,0.148818552 7.78967027,0.223227828" id="Shape"></path>
                                    <path d="M8.82829297,12.947214 C8.82829297,10.5661172 10.7571637,8.70588527 13.0569711,8.70588527 C15.4309659,8.70588527 17.2856493,10.6405264 17.2856493,12.947214 C17.2856493,15.3283108 15.3567785,17.1885427 13.0569711,17.1885427 C10.6829764,17.1885427 8.82829297,15.3283108 8.82829297,12.947214 M6.52848556,12.947214 C6.52848556,16.5932685 9.495979,19.4952303 13.0569711,19.4952303 C16.6921506,19.4952303 19.5854567,16.5188592 19.5854567,12.947214 C19.5854567,9.30115948 16.6179632,6.39919772 13.0569711,6.39919772 C9.42179166,6.39919772 6.52848556,9.30115948 6.52848556,12.947214 M18.324272,6.10156062 C18.324272,6.92006265 18.991958,7.66415541 19.882206,7.66415541 C20.6982667,7.66415541 21.4401401,6.99447193 21.4401401,6.10156062 C21.4401401,5.20864931 20.7724541,4.53896583 19.882206,4.53896583 L19.882206,4.53896583 C18.991958,4.53896583 18.324272,5.28305859 18.324272,6.10156062 M7.86385761,23.3645126 C6.6026729,23.2901033 5.93498687,23.0668755 5.48986286,22.918057 C4.89636417,22.6948291 4.45124016,22.397192 4.00611614,21.9507364 C3.56099212,21.5042807 3.26424278,21.0578251 3.04168077,20.4625509 C2.8933061,20.0160952 2.67074409,19.3464117 2.59655676,18.081454 C2.52236942,16.7420871 2.52236942,16.2956314 2.52236942,12.8728047 C2.52236942,9.44997803 2.52236942,9.07793165 2.59655676,7.66415541 C2.67074409,6.39919772 2.8933061,5.72951424 3.04168077,5.28305859 C3.26424278,4.68778438 3.56099212,4.24132872 4.00611614,3.79487307 C4.45124016,3.34841741 4.89636417,3.05078031 5.48986286,2.82755248 C5.93498687,2.67873393 6.6026729,2.4555061 7.86385761,2.38109683 C9.19922965,2.30668755 9.64435367,2.30668755 12.9827838,2.30668755 C16.3954012,2.30668755 16.7663379,2.30668755 18.1758973,2.38109683 C19.437082,2.4555061 20.104768,2.67873393 20.549892,2.82755248 C21.1433907,3.05078031 21.5885148,3.34841741 22.0336388,3.79487307 C22.4787628,4.24132872 22.7755121,4.68778438 22.9980741,5.28305859 C23.1464488,5.72951424 23.3690108,6.39919772 23.4431982,7.66415541 C23.5173855,9.00352238 23.5173855,9.44997803 23.5173855,12.8728047 C23.5173855,16.2956314 23.5173855,16.6676778 23.4431982,18.081454 C23.3690108,19.3464117 23.1464488,20.0160952 22.9980741,20.4625509 C22.7755121,21.0578251 22.4787628,21.5042807 22.0336388,21.9507364 C21.5885148,22.397192 21.1433907,22.6948291 20.549892,22.918057 C20.104768,23.0668755 19.437082,23.2901033 18.1758973,23.3645126 C16.8405253,23.4389219 16.3954012,23.4389219 12.9827838,23.4389219 C9.64435367,23.4389219 9.27341699,23.4389219 7.86385761,23.3645126 M7.78967027,0.223227828 C6.45429823,0.297637103 5.48986286,0.520864931 4.67380216,0.818502034 C3.85774147,1.11613914 3.11586811,1.56259479 2.44818209,2.30668755 C1.78049606,3.05078031 1.33537205,3.72046379 0.964435367,4.53896583 C0.667686023,5.35746786 0.445124016,6.25037917 0.37093668,7.66415541 C0.296749344,9.00352238 0.296749344,9.44997803 0.296749344,12.947214 C0.296749344,16.44445 0.296749344,16.8909056 0.37093668,18.2302726 C0.445124016,19.5696395 0.667686023,20.5369601 0.964435367,21.3554622 C1.26118471,22.1739642 1.70630873,22.918057 2.44818209,23.5877404 C3.19005544,24.2574239 3.85774147,24.7038796 4.67380216,25.075926 C5.48986286,25.3735631 6.38011089,25.5967909 7.78967027,25.6712002 C9.12504232,25.7456094 9.57016633,25.7456094 13.0569711,25.7456094 C16.5437759,25.7456094 16.9888999,25.7456094 18.324272,25.6712002 C19.659644,25.5967909 20.6240794,25.3735631 21.4401401,25.075926 C22.2562008,24.7782889 22.9980741,24.3318332 23.6657602,23.5877404 C24.4076335,22.8436477 24.7785702,22.1739642 25.1495069,21.3554622 C25.4462562,20.5369601 25.6688182,19.6440488 25.7430056,18.2302726 C25.8171929,16.8909056 25.8171929,16.44445 25.8171929,12.947214 C25.8171929,9.44997803 25.8171929,9.00352238 25.7430056,7.66415541 C25.6688182,6.32478845 25.4462562,5.35746786 25.1495069,4.53896583 C24.8527575,3.72046379 24.4076335,2.97637103 23.6657602,2.30668755 C22.9238868,1.56259479 22.2562008,1.19054841 21.4401401,0.818502034 C20.6240794,0.520864931 19.7338314,0.297637103 18.324272,0.223227828 C16.9888999,0.148818552 16.5437759,0.148818552 13.0569711,0.148818552 C9.57016633,0.148818552 9.12504232,0.148818552 7.78967027,0.223227828" id="Shape"></path>
                                </g>
                            </g>
                            <rect id="Rectangle" fill="#FFFFFF" fill-rule="nonzero" x="0" y="147.359152" width="145.126382" height="54.2098434"></rect>
                            <path d="M74.5513774,174.521916 C73.6752275,174.521916 73.018115,174.809842 72.3610025,175.097769 L72.3610025,181.792055 C73.018115,181.864037 73.3831775,181.864037 73.9672775,181.864037 C76.1576524,181.864037 76.4497025,180.856295 76.4497025,179.488644 L76.4497025,176.249474 C76.37669,175.385695 76.0846399,174.521916 74.5513774,174.521916 L74.5513774,174.521916 Z M60.1679153,174.162008 C58.6346528,174.162008 58.3426027,174.953806 58.3426027,175.961548 L58.3426027,176.5374 L62.0662402,176.5374 L62.0662402,175.961548 C61.9932277,175.025787 61.6281652,174.162008 60.1679153,174.162008 Z M32.2771407,181.216202 C32.2771407,182.008 32.6422032,182.43989 33.5183532,182.43989 C34.3945032,182.43989 34.9786032,182.151963 35.6357157,181.864037 L35.6357157,180.280442 L33.6643782,180.280442 C32.7152158,180.20846 32.2771407,180.352423 32.2771407,181.216202 L32.2771407,181.216202 Z M88.5697772,174.521916 C87.0365147,174.521916 86.5254272,175.313713 86.5254272,176.321455 L86.5254272,179.992516 C86.5254272,181.000258 87.0365147,181.792055 88.5697772,181.792055 C90.1030397,181.792055 90.6141272,181.000258 90.6141272,179.992516 L90.6141272,176.321455 C90.5411147,175.385695 90.0300272,174.521916 88.5697772,174.521916 Z M24.9028784,185.319153 L20.5221285,185.319153 L20.5221285,174.73786 L18.3317535,174.73786 L18.3317535,171.066799 L20.5221285,171.066799 L20.5221285,168.907352 C20.5221285,165.956108 21.763341,164.156568 25.3409534,164.156568 L28.2614533,164.156568 L28.2614533,167.827629 L26.4361409,167.827629 C25.0489034,167.827629 24.9758909,168.331499 24.9758909,169.26726 L24.9758909,171.066799 L28.3344658,171.066799 L27.9694033,174.73786 L25.0489034,174.73786 L25.0489034,185.319153 L24.9028784,185.319153 Z M40.0164656,185.319153 L36.3658407,185.319153 L36.2198157,184.383393 C34.5405282,185.319153 33.0072658,185.463116 32.0581032,185.463116 C29.3566408,185.463116 27.8963908,183.663577 27.8963908,181.216202 C27.8963908,178.336939 29.5756783,177.257216 32.5691907,177.257216 L35.6357157,177.257216 L35.6357157,176.609381 C35.6357157,175.097769 35.4896907,174.665879 33.1532907,174.665879 L29.3566408,174.665879 L29.7217033,170.994818 L33.8834157,170.994818 C38.9942906,170.994818 40.0894781,172.578413 40.0894781,176.609381 L40.0164656,185.319153 L40.0164656,185.319153 Z M52.5746154,175.025787 C50.3112279,174.665879 49.6541154,174.521916 48.4859154,174.521916 C46.514578,174.521916 45.930478,174.953806 45.930478,176.609381 L45.930478,179.776571 C45.930478,181.432148 46.514578,181.864037 48.4859154,181.864037 C49.5811029,181.864037 50.2382154,181.792055 52.5746154,181.360166 L52.5746154,184.887263 C50.5302654,185.319153 49.289053,185.463116 48.120853,185.463116 C43.3750405,185.463116 41.4767156,183.015742 41.4767156,179.416663 L41.4767156,176.897308 C41.4767156,173.37021 43.3750405,170.850855 48.120853,170.850855 C49.2160405,170.850855 50.5302654,170.994818 52.5746154,171.426708 L52.5746154,175.025787 L52.5746154,175.025787 Z M66.4469901,179.488644 L58.3426027,179.488644 L58.3426027,179.776571 C58.3426027,181.432148 58.9267028,181.864037 60.8980402,181.864037 C62.6503401,181.864037 63.7455276,181.792055 66.0819276,181.360166 L66.0819276,184.887263 C63.8915526,185.319153 62.7233527,185.463116 60.5329777,185.463116 C55.7871653,185.463116 53.8888403,183.015742 53.8888403,179.416663 L53.8888403,176.5374 C53.8888403,173.442192 55.2760778,170.850855 60.1679153,170.850855 C65.0597526,170.850855 66.4469901,173.37021 66.4469901,176.5374 L66.4469901,179.488644 L66.4469901,179.488644 Z M80.8304524,179.560627 C80.8304524,183.015742 79.8082774,185.535098 73.8212525,185.535098 C71.6308775,185.535098 70.389665,185.319153 67.9802526,184.959245 L67.9802526,165.308273 L72.434015,164.588457 L72.434015,171.498689 C73.3831775,171.138782 74.6243899,170.994818 75.7195774,170.994818 C80.1733398,170.994818 80.9034649,172.93832 80.9034649,176.105511 L80.8304524,179.560627 L80.8304524,179.560627 Z M94.9948774,179.632608 C94.9948774,182.583853 93.753665,185.463116 88.5697772,185.463116 C83.3858898,185.463116 82.0716649,182.583853 82.0716649,179.632608 L82.0716649,176.753345 C82.0716649,173.8021 83.3128773,170.922836 88.5697772,170.922836 C93.753665,170.922836 94.9948774,173.8021 94.9948774,176.753345 L94.9948774,179.632608 L94.9948774,179.632608 Z M109.159302,179.632608 C109.159302,182.583853 107.91809,185.463116 102.734202,185.463116 C97.5503147,185.463116 96.2360898,182.583853 96.2360898,179.632608 L96.2360898,176.753345 C96.2360898,173.8021 97.4773022,170.922836 102.734202,170.922836 C107.91809,170.922836 109.159302,173.8021 109.159302,176.753345 L109.159302,179.632608 L109.159302,179.632608 Z M123.688789,185.319153 L118.869964,185.319153 L114.781264,178.624866 L114.781264,185.319153 L110.327502,185.319153 L110.327502,165.308273 L114.781264,164.588457 L114.781264,177.47316 L118.869964,171.138782 L123.688789,171.138782 L119.235026,178.049013 L123.688789,185.319153 Z M102.734202,174.521916 C101.200939,174.521916 100.689852,175.313713 100.689852,176.321455 L100.689852,179.992516 C100.689852,181.000258 101.200939,181.792055 102.734202,181.792055 C104.267464,181.792055 104.778552,181.000258 104.778552,179.992516 L104.778552,176.321455 C104.705539,175.385695 104.194452,174.521916 102.734202,174.521916 L102.734202,174.521916 Z M126.244227,182.799798 C126.974352,182.799798 127.558451,183.375651 127.558451,184.167448 C127.558451,184.959245 126.974352,185.535098 126.244227,185.535098 C125.514102,185.535098 124.856989,184.959245 124.856989,184.167448 C124.856989,183.447632 125.441089,182.799798 126.244227,182.799798 L126.244227,182.799798 Z M126.244227,183.015742 C125.660127,183.015742 125.149039,183.519614 125.149039,184.167448 C125.149039,184.815282 125.660127,185.319153 126.244227,185.319153 C126.828327,185.319153 127.339414,184.815282 127.339414,184.167448 C127.339414,183.519614 126.828327,183.015742 126.244227,183.015742 L126.244227,183.015742 Z M125.952177,184.959245 L125.733139,184.959245 L125.733139,183.447632 C125.879164,183.447632 125.952177,183.447632 126.171214,183.447632 C126.390252,183.447632 126.536277,183.519614 126.609289,183.591595 C126.682302,183.663577 126.755314,183.735558 126.755314,183.879521 C126.755314,184.095466 126.609289,184.167448 126.463264,184.23943 L126.463264,184.23943 C126.609289,184.23943 126.682302,184.383393 126.682302,184.599337 C126.682302,184.815282 126.755314,184.887263 126.755314,184.959245 L126.536277,184.959245 C126.536277,184.887263 126.463264,184.7433 126.463264,184.599337 C126.463264,184.383393 126.317239,184.311411 126.171214,184.311411 L126.025189,184.311411 L125.952177,184.959245 L125.952177,184.959245 Z M125.952177,184.095466 L126.098202,184.095466 C126.317239,184.095466 126.463264,184.023484 126.463264,183.80754 C126.463264,183.663577 126.390252,183.519614 126.098202,183.519614 C126.025189,183.519614 125.952177,183.519614 125.952177,183.519614 L125.952177,184.095466 L125.952177,184.095466 Z" id="Shape" fill="#3B5998" fill-rule="nonzero"></path>
                            <g id="Path" transform="translate(132.141390, 193.170287)">
                                <path d="M68.2673008,26.1189971 L9.24911818,26.1189971 C4.40434199,26.1189971 0.440434199,22.1121055 0.440434199,17.2147936 L0.440434199,9.34941372 C0.440434199,4.45210177 4.40434199,0.445210177 9.24911818,0.445210177 L68.2673008,0.445210177 C73.112077,0.445210177 77.0759848,4.45210177 77.0759848,9.34941372 L77.0759848,17.2147936 C77.0759848,22.1121055 73.1854826,26.1189971 68.2673008,26.1189971" fill="#5EC230" fill-rule="nonzero"></path>
                                <polyline stroke="#FFFFFF" stroke-width="1.07" points="33.252782 11.1302545 38.0241525 16.3985749 44.263637 7.27176623"></polyline>
                                <line x1="162.446814" y1="13.2821036" x2="149.086976" y2="46.153455" stroke="#093F7F" stroke-width="1.07"></line>
                            </g>
                        </g>
                    </g>
                </g>
            </g>
        </g>
    </g>
</svg>