<svg xmlns="http://www.w3.org/2000/svg" viewBox="0 0 355.707 355.707"><path d="M152.687 79.161c-5.523 0-10 4.477-10 10v80.5H91.981c-5.523 0-10 4.477-10 10v5c0 5.522 4.477 10 10 10h65.706c5.523 0 10-4.478 10-10v-95.5c0-5.523-4.477-10-10-10h-5z"/><path d="M196.997 308.965l.052-.392.005-.075v-10.314c-13.064 4.402-27.044 6.792-41.573 6.792C83.534 304.976 25 246.441 25 174.494s58.534-130.48 130.481-130.48c65.819 0 120.402 48.989 129.225 112.418 8.968.127 17.493.762 25.413 1.845-8.136-78.14-74.381-139.263-154.637-139.263C69.749 19.014 0 88.762 0 174.494s69.749 155.481 155.481 155.481c15.745 0 30.947-2.36 45.28-6.732-2.45-3.259-3.765-6.756-3.765-10.425l.001-3.853z"/><path d="M207.054 190.278c0 9.971 28.276 23.877 74.326 23.877 46.051 0 74.327-13.906 74.327-23.877 0-9.97-28.276-23.877-74.327-23.877-46.05 0-74.326 13.908-74.326 23.877zm75.925-10.894l.695 1.344c4.161.097 8.335.478 11.673 1.076.966.175 1.42.57 1.019.887l-2.916 2.281c-.404.316-1.512.432-2.478.258-2.402-.43-6.212-.679-9.263-.603-3.212.08-8.486.532-7.872 1.717.602 1.168 2.548 1.559 10.953 2.202 7.177.548 18.023 1.379 20.041 5.479 1.336 2.583-3.131 4.681-11.465 5.458l.729 1.413c.186.359-.499.669-1.528.696l-7.452.186c-1.029.024-2.014-.245-2.201-.605l-.764-1.483c-5.11-.271-10.076-1.023-13.829-2.107-.841-.243-1.021-.655-.403-.921l4.49-1.92c.297-.129.744-.202 1.239-.211a5.042 5.042 0 011.407.169c2.737.79 7.278 1.277 11.046 1.182 3.068-.075 8.111-.497 7.542-1.596-.487-.993-2.197-1.316-10.163-1.925-7.406-.568-18.594-1.425-20.823-5.738-1.271-2.459 2.519-4.491 9.947-5.402l-.806-1.558c-.185-.359.499-.67 1.527-.696l7.454-.186c1.031-.025 2.014.244 2.201.603z"/><path d="M207.054 206.938V231.775c1.202 9.911 29.223 23.215 74.268 23.215 46.051 0 74.329-13.906 74.329-23.877l.035-24.157c-15.203 11.261-45.394 17.2-74.305 17.2-28.926-.001-59.132-5.946-74.327-17.218zM207.054 288.661v20.293c0 .085-.021.165-.025.249a5.209 5.209 0 01-.032.417l-.001 3.198c0 9.969 28.276 23.875 74.325 23.875 46.051 0 74.329-13.906 74.329-23.877l.035-24.223c-15.184 11.286-45.415 17.241-74.364 17.241-28.887.001-59.053-5.93-74.267-17.173z"/><path d="M207.054 247.815V272.619c1.202 9.911 29.223 23.215 74.268 23.215 46.051 0 74.329-13.906 74.329-23.876l.035-24.211c-15.184 11.286-45.415 17.241-74.364 17.241-28.888.001-59.054-5.929-74.268-17.173z"/></svg>